<?xml version="1.0" encoding="UTF-8" standalone="no"?>
<svg
   xmlns:dc="http://purl.org/dc/elements/1.1/"
   xmlns:cc="http://creativecommons.org/ns#"
   xmlns:rdf="http://www.w3.org/1999/02/22-rdf-syntax-ns#"
   xmlns:svg="http://www.w3.org/2000/svg"
   xmlns="http://www.w3.org/2000/svg"
   version="1.1"
   id="svg2"
   xml:space="preserve"
   width="800"
   height="800"
   viewBox="0 0 800.00001 800.00001"><metadata
     id="metadata8"><rdf:RDF><cc:Work
         rdf:about=""><dc:format>image/svg+xml</dc:format><dc:type
           rdf:resource="http://purl.org/dc/dcmitype/StillImage" /><dc:title></dc:title></cc:Work></rdf:RDF></metadata><defs
     id="defs6" /><g
     id="g10"
     transform="matrix(1.3333333,0,0,-1.3333333,-825.21309,-741.83569)"
     style="display:inline;opacity:1" /><g
     style="display:none;opacity:1"
     transform="matrix(1.3333333,0,0,-1.3333333,-825.21309,-741.83569)"
     id="g958" /><g
     id="layer1"
     transform="matrix(1.3333333,0,0,-1.3333333,-825.21309,-741.83569)"
     style="display:inline;opacity:1" /><g
     id="layer2"
     style="display:none"
     transform="translate(-718.72709,-989.58859)"><path
       style="fill:none;stroke:#000000;stroke-width:6;stroke-linecap:round;stroke-linejoin:miter;stroke-miterlimit:4;stroke-dasharray:none;stroke-opacity:1"
       d="m 379.21009,141.72391 c -10.46679,22.94425 -61.85583,9.33146 -46.31984,-21.49119"
       id="path1106" /><path
       style="fill:none;stroke:#000000;stroke-width:6;stroke-linecap:round;stroke-linejoin:miter;stroke-miterlimit:4;stroke-dasharray:none;stroke-opacity:1"
       d="M 327.80152,138.06321 C 270.62345,135.41483 288.52384,8.3361349 349.6784,46.385299"
       id="path1106-0" /><path
       style="fill:none;stroke:#000000;stroke-width:6;stroke-linecap:round;stroke-linejoin:miter;stroke-miterlimit:4;stroke-dasharray:none;stroke-opacity:1"
       d="m 326.89974,37.16684 c 1.65745,-34.7108649 56.967,-44.7046189 68.69769,-6.200448"
       id="path1106-6" /><path
       style="fill:none;stroke:#000000;stroke-width:6;stroke-linecap:round;stroke-linejoin:miter;stroke-miterlimit:4;stroke-dasharray:none;stroke-opacity:1"
       d="M 390.36197,18.758567 C 440.15501,-12.469676 476.6852,49.869081 455.55042,84.1929"
       id="path1106-6-2" /><path
       style="fill:none;stroke:#eb6109;stroke-width:6;stroke-linecap:round;stroke-linejoin:miter;stroke-miterlimit:4;stroke-dasharray:none;stroke-opacity:1"
       d="m 447.2598,76.092829 c 31.0509,47.200691 -42.39749,97.978291 -75.41808,58.462501"
       id="path1106-6-2-6" /><path
       style="fill:none;stroke:#000000;stroke-width:6;stroke-linecap:round;stroke-linejoin:miter;stroke-miterlimit:4;stroke-dasharray:none;stroke-opacity:1"
       d="m 310.52847,252.32789 0.17372,16.11621"
       id="path1168" /><circle
       style="opacity:1;fill:none;fill-opacity:1;stroke:#eb6109;stroke-width:6;stroke-linecap:round;stroke-linejoin:round;stroke-miterlimit:4;stroke-dasharray:none;stroke-dashoffset:0;stroke-opacity:1;paint-order:stroke fill markers"
       id="path1170"
       cx="466.67697"
       cy="133.98833"
       r="14.215562" /><circle
       style="display:inline;opacity:1;fill:none;fill-opacity:1;stroke:#eb6109;stroke-width:6;stroke-linecap:round;stroke-linejoin:round;stroke-miterlimit:4;stroke-dasharray:none;stroke-dashoffset:0;stroke-opacity:1;paint-order:stroke fill markers"
       id="path1170-1"
       cx="476.95816"
       cy="162.26357"
       r="8.3442945" /></g><rect
     y="0"
     x="0"
     height="800"
     width="800"
     id="rect839"
     style="opacity:1;fill:#4c4a48;fill-opacity:1;stroke:none;stroke-width:49.59085083;stroke-linecap:square;stroke-linejoin:miter;stroke-miterlimit:4;stroke-dasharray:none;stroke-dashoffset:0;stroke-opacity:1;paint-order:stroke fill markers" /><g
     id="layer3"
     transform="translate(449.66122,-1167.4629)"><path
       id="path1478-8-0-5-3-8-1-0-6"
       style="display:inline;opacity:1;fill:#eb6109;fill-opacity:1;stroke:none;stroke-width:10.02436447;stroke-linecap:butt;stroke-linejoin:miter;stroke-miterlimit:4;stroke-dasharray:none;stroke-opacity:1"
       d="m -19.1004,1653.0095 h 55.96788 v -55.9264 z" /><path
       style="display:inline;opacity:1;fill:#ffffff;fill-opacity:1;stroke:none;stroke-width:1px;stroke-linecap:butt;stroke-linejoin:miter;stroke-opacity:1"
       d="m -75.91384,1485.4153 c 4.59627,-1.0606 15.55641,4.2428 15.55641,4.2428 5.34827,4.7626 1.9608,71.5113 3.08627,138.3201 0.2632,15.6222 -16.28388,18.5386 -25.36015,14.769 -13.92346,-5.7831 -16.2912,-21.9839 -20.1944,-33.737 -19.63946,6.198 -37.6776,-13.9223 -23.07093,-37.0538 -10.3164,-15.6229 -7.95267,-27.1055 4.8248,-35.1875 -2.72773,-24.8126 9.04907,-34.0654 32.24013,-31.0736 -0.7108,-12.178 1.896,-20.7732 12.91787,-20.28 z"
       id="path1152-1-1-1-5-2-7-6-6-7" /><path
       style="display:inline;opacity:1;fill:none;stroke:#000000;stroke-width:6;stroke-linecap:round;stroke-linejoin:miter;stroke-miterlimit:4;stroke-dasharray:none;stroke-opacity:1"
       d="m -88.83171,1505.6953 c 0,0 -3.85413,-15.5794 7.99347,-19.4234 11.84761,-3.844 23.36948,0.5036 23.38988,15.0904 l 0.1772,126.6159"
       id="path942-2-0-5-4-0-1-7-7-53" /><path
       style="display:inline;opacity:1;fill:none;stroke:#000000;stroke-width:6;stroke-linecap:round;stroke-linejoin:miter;stroke-miterlimit:4;stroke-dasharray:none;stroke-opacity:1"
       d="m -83.49064,1512.7397 c -12.76707,-19.0574 -45.3344,-0.7644 -37.5812,24.0292"
       id="path976-9-6-5-7-6-7-3-5-5" /><path
       style="display:inline;opacity:1;fill:none;stroke:#000000;stroke-width:6;stroke-linecap:round;stroke-linejoin:miter;stroke-miterlimit:4;stroke-dasharray:none;stroke-opacity:1"
       d="m -108.07424,1542.0712 c -9.81282,-12.2852 -38.43677,3.6155 -17.8224,29.8852 -22.6852,21.9327 16.0844,50.319 28.57853,29.7491"
       id="path978-3-3-4-4-8-2-6-3-6" /><path
       style="display:inline;opacity:1;fill:none;stroke:#000000;stroke-width:6;stroke-linecap:round;stroke-linejoin:miter;stroke-miterlimit:4;stroke-dasharray:none;stroke-opacity:1"
       d="m -57.28146,1627.0156 c 0,18.498 -45.85045,29.1716 -43.15151,-19.725"
       id="path980-1-2-7-4-9-7-5-5-2" /><path
       style="display:inline;opacity:1;fill:none;stroke:#000000;stroke-width:6;stroke-linecap:round;stroke-linejoin:miter;stroke-miterlimit:4;stroke-dasharray:none;stroke-opacity:1"
       d="m -57.24444,1623.5952 c -0.25,-5.8741 -4.24037,-10.7283 -8.98857,-12.1581"
       id="path982-9-0-6-3-2-2-6-3-2-9" /><path
       style="display:inline;opacity:1;fill:#ffffff;fill-opacity:1;stroke:none;stroke-width:1px;stroke-linecap:butt;stroke-linejoin:miter;stroke-opacity:1"
       d="m -29.43707,1485.3976 c -4.59627,-1.0606 -15.55641,4.2428 -15.55641,4.2428 -5.34827,4.7626 -1.9608,71.5113 -3.08627,138.3201 -0.2632,15.6222 16.28388,18.5386 25.36015,14.769 13.92346,-5.7831 16.2912,-21.9839 20.1944,-33.737 19.63946,6.198 37.6776,-13.9223 23.07093,-37.0538 10.3164,-15.6229 7.95267,-27.1055 -4.8248,-35.1875 2.72773,-24.8126 -9.04907,-34.0654 -32.24013,-31.0736 0.7108,-12.178 -1.896,-20.7732 -12.91787,-20.28 z"
       id="path1152-1-1-1-5-2-7-6-6-8-0" /><path
       style="display:inline;opacity:1;fill:none;stroke:#000000;stroke-width:6;stroke-linecap:round;stroke-linejoin:miter;stroke-miterlimit:4;stroke-dasharray:none;stroke-opacity:1"
       d="m -16.5192,1505.6776 c 0,0 3.85413,-15.5794 -7.99347,-19.4234 -11.84761,-3.844 -23.36948,0.5036 -23.38988,15.0904 l -0.1772,126.6159"
       id="path942-2-0-5-4-0-1-7-7-5-9" /><path
       style="display:inline;opacity:1;fill:none;stroke:#000000;stroke-width:6;stroke-linecap:round;stroke-linejoin:miter;stroke-miterlimit:4;stroke-dasharray:none;stroke-opacity:1"
       d="m -21.86027,1512.722 c 12.76707,-19.0574 45.3344,-0.7644 37.5812,24.0292"
       id="path976-9-6-5-7-6-7-3-5-74-3" /><path
       style="display:inline;opacity:1;fill:none;stroke:#000000;stroke-width:6;stroke-linecap:round;stroke-linejoin:miter;stroke-miterlimit:4;stroke-dasharray:none;stroke-opacity:1"
       d="m 2.72333,1542.0535 c 9.81282,-12.2852 38.43677,3.6155 17.8224,29.8852 22.6852,21.9327 -16.0844,50.319 -28.57853,29.7491"
       id="path978-3-3-4-4-8-2-6-3-1-6" /><path
       style="display:inline;opacity:1;fill:none;stroke:#000000;stroke-width:6;stroke-linecap:round;stroke-linejoin:miter;stroke-miterlimit:4;stroke-dasharray:none;stroke-opacity:1"
       d="m -48.06945,1626.9979 c 0,18.498 45.85045,29.1716 43.15151,-19.725"
       id="path980-1-2-7-4-9-7-5-5-8-0" /><path
       style="display:inline;opacity:1;fill:none;stroke:#000000;stroke-width:6;stroke-linecap:round;stroke-linejoin:miter;stroke-miterlimit:4;stroke-dasharray:none;stroke-opacity:1"
       d="m -48.10647,1623.5775 c 0.25,-5.8741 4.24037,-10.7283 8.98857,-12.1581"
       id="path982-9-0-6-3-2-2-6-3-2-5-6" /><path
       style="display:inline;opacity:1;fill:none;stroke:#000000;stroke-width:6;stroke-linecap:round;stroke-linejoin:miter;stroke-miterlimit:4;stroke-dasharray:none;stroke-opacity:1"
       d="m -20.367281,1544.3498 c -4.39351,4.8986 -6.48956,13.4316 1.36287,21.2086"
       id="path889-3-8-9-6-2-9-7-5-1-7-6" /></g></svg>