<?xml version="1.0" encoding="UTF-8" standalone="no"?>
<svg
   xmlns:dc="http://purl.org/dc/elements/1.1/"
   xmlns:cc="http://creativecommons.org/ns#"
   xmlns:rdf="http://www.w3.org/1999/02/22-rdf-syntax-ns#"
   xmlns:svg="http://www.w3.org/2000/svg"
   xmlns="http://www.w3.org/2000/svg"
   version="1.1"
   id="svg2"
   xml:space="preserve"
   width="169.74252"
   height="169.74013"
   viewBox="0 0 169.74253 169.74013"><metadata
     id="metadata8"><rdf:RDF><cc:Work
         rdf:about=""><dc:format>image/svg+xml</dc:format><dc:type
           rdf:resource="http://purl.org/dc/dcmitype/StillImage" /><dc:title></dc:title></cc:Work></rdf:RDF></metadata><defs
     id="defs6" /><g
     id="g10"
     transform="matrix(1.3333333,0,0,-1.3333333,-98.306798,249.80266)"><g
       id="g12"
       transform="scale(0.1)"
       style="fill:#000000"><path
         d="m 1951.99,1237.01 c 0,-319.362 -258.87,-578.158 -578.17,-578.158 v -58.383 h 636.5 c 0,0 0.05,498.551 0.05,636.541 h -58.38"
         style="fill:#fffffe;fill-opacity:1;fill-rule:nonzero;stroke:none"
         id="path14" /><path
         d="m 1373.82,658.852 c -319.3,0 -578.175,258.796 -578.175,578.158 0,319.28 258.875,578.16 578.175,578.16 170.53,0 323.86,-73.85 429.66,-191.35 92.29,-102.46 148.51,-238.07 148.51,-386.81 h 58.38 c 0,95.03 -21.01,185.17 -58.35,266.18 -31.95,69.15 -75.9,131.57 -129.15,184.67 -115.05,114.74 -273.71,185.66 -449.05,185.66 -351.53,0 -636.519,-284.98 -636.519,-636.51 0,-351.557 284.939,-636.541 636.519,-636.541 v 58.383"
         style="fill:#ffffff;fill-opacity:1;fill-rule:nonzero;stroke:none"
         id="path16" /><path
         d="m 1580.65,1419.96 c -13.12,0.03 -23.81,-10.63 -23.81,-23.85 v -116.65 c -0.05,-13.2 10.69,-23.86 23.85,-23.89 13.19,0.03 23.82,10.66 23.82,23.89 l 0.07,116.65 c 0,13.19 -10.7,23.85 -23.93,23.85"
         style="fill:#ffffff;fill-opacity:1;fill-rule:nonzero;stroke:none"
         id="path18" /></g></g></svg>
