<?xml version="1.0" encoding="UTF-8" standalone="no"?>
<!-- Created with Inkscape (http://www.inkscape.org/) -->

<svg
   xmlns:dc="http://purl.org/dc/elements/1.1/"
   xmlns:cc="http://creativecommons.org/ns#"
   xmlns:rdf="http://www.w3.org/1999/02/22-rdf-syntax-ns#"
   xmlns:svg="http://www.w3.org/2000/svg"
   xmlns="http://www.w3.org/2000/svg"
   xmlns:sodipodi="http://sodipodi.sourceforge.net/DTD/sodipodi-0.dtd"
   xmlns:inkscape="http://www.inkscape.org/namespaces/inkscape"
   version="1.1"
   id="svg2"
   xml:space="preserve"
   width="155.43431"
   height="23.999126"
   viewBox="0 0 155.43431 23.999126"
   sodipodi:docname="Artsdatabanken_long.svg"
   inkscape:version="0.92.3 (2405546, 2018-03-11)"><metadata
     id="metadata8"><rdf:RDF><cc:Work
         rdf:about=""><dc:format>image/svg+xml</dc:format><dc:type
           rdf:resource="http://purl.org/dc/dcmitype/StillImage" /><dc:title></dc:title></cc:Work></rdf:RDF></metadata><defs
     id="defs6" /><sodipodi:namedview
     pagecolor="#ffffff"
     bordercolor="#666666"
     borderopacity="1"
     objecttolerance="10"
     gridtolerance="10"
     guidetolerance="10"
     inkscape:pageopacity="0"
     inkscape:pageshadow="2"
     inkscape:window-width="1680"
     inkscape:window-height="986"
     id="namedview4"
     showgrid="false"
     inkscape:zoom="3.7790232"
     inkscape:cx="98.753578"
     inkscape:cy="30.492292"
     inkscape:window-x="1920"
     inkscape:window-y="27"
     inkscape:window-maximized="1"
     inkscape:current-layer="g12"
     fit-margin-top="0"
     fit-margin-left="0"
     fit-margin-right="0"
     fit-margin-bottom="0" /><g
     id="g10"
     inkscape:groupmode="layer"
     inkscape:label="ink_ext_XXXXXX"
     transform="matrix(1.3333333,0,0,-1.3333333,-63.370129,317.79511)"><g
       id="g12"
       transform="scale(0.1)"
       style="fill:#000000"><g
         id="g913"
         transform="matrix(0.31811714,0,0,0.31811714,739.28258,2203.4699)"><path
           inkscape:connector-curvature="0"
           id="path20"
           style="fill:#000000;fill-opacity:1;fill-rule:nonzero;stroke:none"
           d="M 103.605,87.1016 76.5352,229.582 51.0195,87.1016 Z M 98.0625,263.391 C 100.504,252.211 155.418,3.91016 155.418,3.91016 H 119.305 L 109.492,57.2891 H 45.1289 L 35.707,3.91016 H 0 c 0,0 53.2969,247.64884 55.8516,259.39884 2.5625,11.781 9.5703,17.679 17.3672,17.679 2.5976,0 5.4609,0 7.289,0 8.0391,0 15.125,-6.398 17.5547,-17.597" /><path
           inkscape:connector-curvature="0"
           id="path22"
           style="fill:#000000;fill-opacity:1;fill-rule:nonzero;stroke:none"
           d="M 1196.31,87.1016 1169.24,229.582 1143.73,87.1016 Z m -5.54,176.2894 c 2.44,-11.18 57.36,-259.48084 57.36,-259.48084 h -36.11 l -9.82,53.37894 h -64.36 l -9.42,-53.37894 h -35.71 c 0,0 53.3,247.64884 55.85,259.39884 2.56,11.781 9.57,17.679 17.37,17.679 2.6,0 5.46,0 7.29,0 8.04,0 15.12,-6.398 17.55,-17.597" /><path
           inkscape:connector-curvature="0"
           id="path24"
           style="fill:#000000;fill-opacity:1;fill-rule:nonzero;stroke:none"
           d="M 1576.8,87.1016 1549.72,229.582 1524.21,87.1016 Z m -5.54,176.2894 c 2.43,-11.18 57.35,-259.48084 57.35,-259.48084 h -36.13 l -9.79,53.37894 h -64.38 L 1508.9,3.91016 h -35.72 c 0,0 53.31,247.64884 55.87,259.39884 2.55,11.781 9.56,17.679 17.35,17.679 2.6,0 5.47,0 7.3,0 8.04,0 15.11,-6.398 17.56,-17.597" /><path
           inkscape:connector-curvature="0"
           id="path26"
           style="fill:#000000;fill-opacity:1;fill-rule:nonzero;stroke:none"
           d="m 1962.98,234.66 c -0.77,3.942 -2.35,16.129 -3.92,26.32 -0.4,-3.929 -0.78,-7.46 -1.16,-11.39 -0.8,-3.91 -1.21,-8.231 -1.97,-12.551 l -22.77,-130.687 h 51.41 z m -7.13,47.922 c 2.32,0 4.92,0 6.45,0 3.4,0 10.92,-4.301 12.49,-13.184 1.56,-8.878 47.85,-265.48784 47.85,-265.48784 h -20.41 L 1988.1,88.3086 h -58.08 L 1915.51,3.91016 h -20.42 c 0,0 46.27,255.48784 48.18,265.14084 1.9,9.668 8.42,13.531 12.58,13.531" /><path
           inkscape:connector-curvature="0"
           id="path28"
           style="fill:#000000;fill-opacity:1;fill-rule:nonzero;stroke:none"
           d="M 2220.05,280.988 V 3.91016 c 0,0 -11.39,0 -17.38,0 -6,0 -12.49,1.9414 -15.22,12.87114 -2.73,10.957 -62.37,252.0507 -62.37,252.0507 1.19,-31.793 1.59,-40.043 1.59,-67.891 l 0.76,-197.03084 h -18.04 V 280.988 c 0,0 12.19,0 18.96,0 6.75,0 10.83,-6.476 12.69,-13.609 1.86,-7.109 63.72,-255.2384 63.72,-255.2384 -0.8,14.5391 -1.96,38.4805 -1.96,66.7383 l -1.58,202.1091 h 18.83" /><path
           inkscape:connector-curvature="0"
           id="path30"
           style="fill:#000000;fill-opacity:1;fill-rule:nonzero;stroke:none"
           d="M 2834.65,280.988 V 3.91016 c 0,0 -11.4,0 -17.39,0 -6,0 -12.49,1.9414 -15.22,12.87114 -2.73,10.957 -62.37,252.0507 -62.37,252.0507 1.18,-31.793 1.57,-40.043 1.57,-67.891 l 0.78,-197.03084 h -18.04 V 280.988 c 0,0 12.19,0 18.94,0 6.77,0 10.87,-6.476 12.71,-13.609 1.86,-7.109 63.72,-255.2384 63.72,-255.2384 -0.8,14.5391 -1.96,38.4805 -1.96,66.7383 l -1.58,202.1091 h 18.84" /><path
           inkscape:connector-curvature="0"
           id="path32"
           style="fill:#000000;fill-opacity:1;fill-rule:nonzero;stroke:none"
           d="m 2417.47,280.988 h 21.59 L 2380.19,170.711 2439.85,3.91016 c 0,0 -5.85,0 -9.09,0 -7.53,0 -12.62,4.17968 -15.4,11.51174 -2.79,7.3789 -46.95,132.1371 -46.95,132.1371 l -20.42,-38.477 V 3.91016 h -18.83 V 280.988 h 19.23 V 145.211 l 69.08,135.777" /><path
           inkscape:connector-curvature="0"
           id="path34"
           style="fill:#000000;fill-opacity:1;fill-rule:nonzero;stroke:none"
           d="m 324.164,157.781 c -7.445,-5.14 -12.941,-5.14 -51.797,-5.14 v 96.949 c 35.707,0 43.176,0 51.41,-5.09 13.352,-8.219 13.739,-25.91 13.739,-42.801 0,-13.719 0,-34.898 -13.352,-43.918 z m 10.606,-28.672 c 7.066,1.969 22.765,5.5 30.613,28.262 3.926,10.199 6.672,27.469 6.672,48.27 0,69.468 -36.895,75.347 -73.395,75.347 h -42.738 c -9.777,0 -17.703,-7.929 -17.703,-17.707 V 3.91016 h 34.148 V 125.18 h 28.645 c 0,0 34.621,-90.8011 39.906,-102.7112 5.281,-11.9493 14.109,-18.55864 30.051,-18.55864 8.308,0 13.64,0 13.64,0 L 334.77,129.109" /><path
           inkscape:connector-curvature="0"
           id="path36"
           style="fill:#000000;fill-opacity:1;fill-rule:nonzero;stroke:none"
           d="M 976.148,61.2188 C 972.223,36.4883 956.52,34.5195 934.547,34.5195 H 912.176 V 249.199 c 36.5,0 44.344,0 52.98,-5.898 12.164,-8.641 12.559,-23.531 12.961,-53.762 0.391,-26.668 0.391,-36.488 0.391,-62.008 0,-14.519 -0.391,-53.3513 -2.36,-66.3122 z m 21.977,198.9722 c -16.48,20.797 -41.215,20.797 -68.285,20.797 h -34.508 c -9.769,0 -17.695,-7.929 -17.695,-17.707 V 21.6211 c 0,-9.7813 7.926,-17.71094 17.695,-17.71094 h 33.715 c 29.832,0 55.726,0 71.433,25.12114 9.81,16.4804 10.6,36.0976 10.99,63.1875 0.78,37.6792 0.78,55.3402 0.78,70.2612 0,67.102 -1.17,81.61 -14.125,97.711" /><path
           inkscape:connector-curvature="0"
           id="path38"
           style="fill:#000000;fill-opacity:1;fill-rule:nonzero;stroke:none"
           d="M 562.852,280.988 H 458.914 c -9.777,0 -17.695,-7.929 -17.695,-17.707 v -13.312 h 52.59 V 3.91016 h 34.148 V 249.969 h 52.598 v 13.312 c 0,9.778 -7.926,17.707 -17.703,17.707" /><path
           inkscape:connector-curvature="0"
           id="path40"
           style="fill:#000000;fill-opacity:1;fill-rule:nonzero;stroke:none"
           d="m 1795.02,63.9609 c 0,-24.332 -1.57,-43.1914 -36.12,-43.1914 h -32.56 V 144.801 h 20.02 c 44.74,0 48.66,-22.36 48.66,-41.602 z m -69.08,200.5511 h 24.35 c 25.88,0 35.31,-5.883 35.31,-30.614 v -33.367 c 0,-16.07 -1.19,-38.84 -40.83,-38.84 h -18.83 z m 45.92,-110.282 c 17.27,3.93 32.96,9.02 32.96,41.981 v 39.66 c 0,45.527 -30.6,45.527 -47.89,45.527 h -37.79 c -6.52,0 -11.8,-5.187 -12.03,-11.636 V 15.5508 c 0.23,-6.44924 5.51,-11.64064 12.03,-11.64064 h 42.92 c 44.34,0 52.19,26.66794 52.19,51.82034 V 102.82 c 0,32.961 -7.85,46.301 -42.39,51.41" /><path
           inkscape:connector-curvature="0"
           id="path42"
           style="fill:#000000;fill-opacity:1;fill-rule:nonzero;stroke:none"
           d="m 2629.8,263.719 v 17.269 h -88.99 c -5.25,-1.34 -9.13,-6.039 -9.13,-11.668 V 15.9609 c 0,-6.64059 5.4,-12.05074 12.06,-12.05074 h 85.65 V 21.1602 h -78.88 V 140.102 h 65.16 v 16.859 h -64.75 v 106.758 h 78.88" /><path
           inkscape:connector-curvature="0"
           id="path44"
           style="fill:#000000;fill-opacity:1;fill-rule:nonzero;stroke:none"
           d="M 1412.64,280.988 H 1308.7 c -9.78,0 -17.7,-7.929 -17.7,-17.707 v -13.312 h 52.59 V 3.91016 h 34.15 V 249.969 h 52.6 v 13.312 c 0,9.778 -7.92,17.707 -17.7,17.707" /><path
           inkscape:connector-curvature="0"
           id="path46"
           style="fill:#000000;fill-opacity:1;fill-rule:nonzero;stroke:none"
           d="m 752.043,136.57 -34.922,36.489 c -19.617,20.8 -27.07,29.031 -27.07,49.851 0,7.852 0,32.961 29.031,32.961 24.34,0 27.863,-17.269 28.664,-22.383 0.567,-3.687 0.719,-6.199 1.059,-17.297 0.472,-9.351 8.136,-16.839 17.609,-16.839 h 13.113 c 0,40.839 0,50.238 -7.847,63.187 -12.571,20.422 -36.504,22.77 -50.629,22.77 -64.371,0 -64.371,-49.438 -64.371,-64.778 0,-25.09 5.508,-41.98 31.793,-69.062 l 37.675,-38.457 c 15.704,-16.0901 25.508,-27.0823 25.508,-49.0511 0,-30.2304 -23.937,-34.5507 -34.929,-34.5507 -30.606,0 -32.961,25.9101 -33.352,32.9882 -0.293,3.8008 -0.367,6.5313 -0.383,19.7305 -0.082,9.6992 -7.961,17.5508 -17.683,17.5508 H 650.004 V 69.0703 c 0,-20.8008 3.937,-41.6289 21.598,-55.3515 C 677.09,8.98828 691.219,0 717.914,0 c 20.801,0 67.117,7.42969 67.117,66.3086 0,31.8125 -10.218,45.9104 -32.988,70.2614" /></g><g
         id="g897"
         transform="matrix(0.14101117,0,0,0.14101117,371.3083,2119.2761)"><path
           inkscape:connector-curvature="0"
           id="path14"
           style="fill:#eb6109;fill-opacity:1;fill-rule:nonzero;stroke:none"
           d="m 1951.99,1237.01 c 0,-319.362 -258.87,-578.158 -578.17,-578.158 v -58.383 h 636.5 c 0,0 0.05,498.551 0.05,636.541 h -58.38" /><path
           inkscape:connector-curvature="0"
           id="path16"
           style="fill:#000000;fill-opacity:1;fill-rule:nonzero;stroke:none"
           d="m 1373.82,658.852 c -319.3,0 -578.175,258.796 -578.175,578.158 0,319.28 258.875,578.16 578.175,578.16 170.53,0 323.86,-73.85 429.66,-191.35 92.29,-102.46 148.51,-238.07 148.51,-386.81 h 58.38 c 0,95.03 -21.01,185.17 -58.35,266.18 -31.95,69.15 -75.9,131.57 -129.15,184.67 -115.05,114.74 -273.71,185.66 -449.05,185.66 -351.53,0 -636.519,-284.98 -636.519,-636.51 0,-351.557 284.939,-636.541 636.519,-636.541 v 58.383" /><path
           inkscape:connector-curvature="0"
           id="path18"
           style="fill:#000000;fill-opacity:1;fill-rule:nonzero;stroke:none"
           d="m 1580.65,1419.96 c -13.12,0.03 -23.81,-10.63 -23.81,-23.85 v -116.65 c -0.05,-13.2 10.69,-23.86 23.85,-23.89 13.19,0.03 23.82,10.66 23.82,23.89 l 0.07,116.65 c 0,13.19 -10.7,23.85 -23.93,23.85" /></g></g></g></svg>