<?xml version="1.0" encoding="UTF-8" standalone="no"?>
<svg
   xmlns:dc="http://purl.org/dc/elements/1.1/"
   xmlns:cc="http://creativecommons.org/ns#"
   xmlns:rdf="http://www.w3.org/1999/02/22-rdf-syntax-ns#"
   xmlns:svg="http://www.w3.org/2000/svg"
   xmlns="http://www.w3.org/2000/svg"
   xmlns:sodipodi="http://sodipodi.sourceforge.net/DTD/sodipodi-0.dtd"
   xmlns:inkscape="http://www.inkscape.org/namespaces/inkscape"
   id="Layer_1"
   viewBox="0 0 501.3 272.1"
   version="1.1"
   sodipodi:docname="naturalis.svg"
   inkscape:version="0.92.3 (2405546, 2018-03-11)">
  <metadata
     id="metadata13">
    <rdf:RDF>
      <cc:Work
         rdf:about="">
        <dc:format>image/svg+xml</dc:format>
        <dc:type
           rdf:resource="http://purl.org/dc/dcmitype/StillImage" />
        <dc:title></dc:title>
      </cc:Work>
    </rdf:RDF>
  </metadata>
  <defs
     id="defs11" />
  <sodipodi:namedview
     pagecolor="#ffffff"
     bordercolor="#666666"
     borderopacity="1"
     objecttolerance="10"
     gridtolerance="10"
     guidetolerance="10"
     inkscape:pageopacity="0"
     inkscape:pageshadow="2"
     inkscape:window-width="1920"
     inkscape:window-height="1043"
     id="namedview9"
     showgrid="false"
     inkscape:zoom="0.94224485"
     inkscape:cx="291.22831"
     inkscape:cy="287.98224"
     inkscape:window-x="0"
     inkscape:window-y="0"
     inkscape:window-maximized="1"
     inkscape:current-layer="Layer_1" />
  <style
     id="style2">.st0{fill:#fff}</style>
  <path
     class="st0"
     d="M301 238.9c-4.5-.1-7 1.8-8.1 3.6v-3.6h-3.5v32.3h3.5v-20.9c0-5 2.3-8 6.9-8h1.1v-3.4zm-32.4 2.6c6.8 0 11.9 4.1 12.2 11.5h-24.1c.8-7.2 5.5-11.5 11.9-11.5m15.9 14.6c.1-.7.1-1.6.1-2-.2-9.7-6.5-15.7-15.8-15.7-9.2 0-15.8 6.9-15.8 16.7 0 10 6.6 16.7 16.3 16.7 7.4 0 12.4-4.3 14.7-10l-2.7-1.2c-2.4 5-5.9 8-12 8-7.4 0-12.2-4.8-12.6-12.6h27.8zM244.7 234h-3.5v4.9h-3.5v3.1h3.5v21.8c0 5 1.3 7.7 7.3 7.7 1 0 2.3-.1 3.1-.1v-3.1h-2.7c-3.7 0-4.1-1.9-4.1-5.1V242h6.9v-3.1h-6.9V234zm-13.9 37.3h3.5v-21.4c0-6.3-2.9-11.3-10.2-11.3-4.1 0-6.7 2.1-7.7 3.7v-3.4h-3.5v32.3h3.5v-20.8c0-5.3 2.5-8.8 7.4-8.8 4.8 0 7 3.1 7 8.5v21.2zm-38.7-29.8c6.8 0 11.9 4.1 12.2 11.5h-24.1c.7-7.2 5.4-11.5 11.9-11.5m15.8 14.6c.1-.7.1-1.6.1-2-.2-9.7-6.5-15.7-15.8-15.7-9.2 0-15.8 6.9-15.8 16.7 0 10 6.6 16.7 16.3 16.7 7.4 0 12.4-4.3 14.7-10l-2.7-1.2c-2.4 5-5.9 8-12 8-7.4 0-12.2-4.8-12.6-12.6h27.8zm-35.3 8c-2.4 2.2-6.2 4.7-11.7 4.7-10.2 0-17.5-7.6-17.5-18.4 0-10.9 6.9-18.5 17.3-18.5 4.2 0 8.2 1.5 11.1 4l2.1-2.5c-3.4-3.2-8.2-4.8-13.2-4.8-12.3 0-21 9-21 21.8s8.8 21.7 21.1 21.7c6.6 0 11.4-3.2 13.7-5.6l-1.9-2.4zm229.5-38.4l17.3-42.9h-3.8l-10.9 27.9-11.7-27.9h-4l13.7 32.3-4.2 10.6h3.6zm-22-47.8h-3.5v4.9h-3.5v3.1h3.5v21.8c0 5 1.3 7.7 7.3 7.7 1 0 2.3-.1 3.1-.1v-3.1h-2.7c-3.7 0-4.1-1.9-4.1-5.1V186h6.9v-3.1h-6.9v-5zm-12.9.6c1.6 0 2.8-1.2 2.8-2.8 0-1.6-1.3-2.8-2.8-2.8-1.6 0-2.8 1.2-2.8 2.8 0 1.6 1.2 2.8 2.8 2.8m1.7 4.3h-3.5v32.3h3.5v-32.3zm-24.1 7.6c0-3.3 2.3-5.1 5.7-5.1 3.9 0 5.7 2.5 5.9 6.5h3.3c-.1-4.9-2.4-9.4-9.2-9.4-5.4 0-9.2 3.2-9.2 8.2 0 3.4 1.3 6 5.2 7.9 2.1 1 4.2 1.4 6.3 2.2 2.6 1 4.4 2.6 4.4 6 0 3.9-3.1 5.9-6.5 5.8-5.1-.1-6.7-3.3-6.8-7.3h-3.4c0 5.5 2.8 10.2 10.1 10.2 5.7 0 10.2-3.4 10.2-9 0-4.7-2.3-7.3-6.3-8.9-2.2-.9-4-1.1-6-2.1-2.5-1-3.7-2.4-3.7-5m-5.9-7.6c-4.5-.1-7 1.8-8.1 3.6v-3.6h-3.5v32.3h3.5v-20.9c0-5 2.3-8 6.9-8h1.1v-3.4zm-32.4 2.5c6.8 0 11.9 4.1 12.2 11.5h-24.1c.7-7.2 5.4-11.5 11.9-11.5m15.8 14.6c.1-.7.1-1.6.1-2-.2-9.7-6.5-15.7-15.8-15.7-9.2 0-15.8 6.9-15.8 16.7 0 10 6.6 16.7 16.3 16.7 7.4 0 12.4-4.3 14.7-10l-2.7-1.2c-2.4 5-5.9 8-12 8-7.4 0-12.2-4.8-12.6-12.6h27.8zm-58.1-17.1h-3.9l13.3 32.3h3.8l13.2-32.3h-3.7L275.6 211l-11.4-28.2zm-9-4.3c1.6 0 2.8-1.2 2.8-2.8 0-1.6-1.3-2.8-2.8-2.8-1.6 0-2.8 1.2-2.8 2.8 0 1.6 1.3 2.8 2.8 2.8m1.8 4.3h-3.5v32.3h3.5v-32.3zm-39.5 16.1c0-7.9 5.4-13.6 12.8-13.6s12.8 5.7 12.8 13.6c0 8-5.4 13.5-12.8 13.5-7.4.1-12.8-5.5-12.8-13.5m25.5 16.2h3.5v-44.2H243v17.7c-2.2-3.6-7-6.4-12.6-6.4-9.4 0-16.4 7.1-16.4 16.7 0 10 6.9 16.7 16.4 16.7 6.8 0 11.2-4 12.6-6.8v6.3zm-65.5-16.2c0 10.1 7.2 16.7 16.4 16.7s16.6-6.9 16.6-16.7c0-9.8-7.3-16.7-16.5-16.7s-16.5 6.7-16.5 16.7m3.6 0c0-7.9 5.4-13.6 12.9-13.6s12.9 5.7 12.9 13.6c0 8-5.5 13.5-12.9 13.5-7.5.1-12.9-5.5-12.9-13.5m-10.6-20.4c1.6 0 2.8-1.2 2.8-2.8 0-1.6-1.3-2.8-2.8-2.8-1.6 0-2.8 1.2-2.8 2.8 0 1.6 1.2 2.8 2.8 2.8m1.8 4.3h-3.5v32.3h3.5v-32.3zm-21.9-6.3c5.4 0 8 2.8 8 7.6s-2.7 7.8-8 7.8h-5.2v-15.4h5.2zm.4 18.5c6 0 8.9 3.3 8.9 8.3 0 5.1-3 8.6-8.9 8.6h-5.6V195h5.6zm12.6 8.2c0-5.3-2.5-8.8-6.4-10.2 3.2-1.6 5.1-4.8 5.1-9.1 0-7.3-4.5-10.7-11.8-10.7h-8.8V215h9.3c7.4.1 12.6-4.2 12.6-11.8m315.4-82.9c0-1.9 1.4-3.1 3.6-3.1 3 0 4.4 1.9 4.5 4.8h13.6c-.1-11.4-7.2-16.1-17.8-16.1-10.2 0-18 5.8-18 15.5 0 7.4 3.3 12.5 10.6 15 2.6.8 4.4 1.3 7.5 1.9 3.1.6 4.1 1.6 4.1 3.6 0 1.9-1.8 3.1-4.3 3.1-3.8 0-4.6-2.7-4.5-5.2h-14.2c-.4 8.6 3.9 17 18.6 17 9.9 0 18.9-4.7 18.9-16.4 0-9-3.9-13-12.5-15.4-1.7-.5-3.9-.8-6-1.3-2.9-.5-4.1-1.5-4.1-3.4m-27.2-15.6c4.7 0 8.5-3.8 8.5-8.4 0-4.7-3.8-8.5-8.5-8.5s-8.4 3.8-8.4 8.5c-.1 4.5 3.6 8.4 8.4 8.4m7.7 1.9h-14.9v49.6h14.9v-49.6zm-21.6-18.2h-14.9v67.8h14.9V88.4zm-59.5 43c0-7 4.3-12.3 11.6-12.3 6.9 0 11.6 5.3 11.6 12.3 0 7.1-4.3 12.4-11.5 12.4s-11.7-5.4-11.7-12.4m23.9 24.8h13.7v-49.6h-14v3.2c-2.8-2.5-7.8-4-13-4-15.6 0-25.5 11-25.5 25.6 0 15.4 10.2 25.7 25.5 25.7 7.1 0 11.3-2.4 13.3-4.1v3.2zm-40.9-49.9c-4.5 0-6.9 1.3-8.7 3.7v-3.4h-14.9v49.6h14.9v-29.6c0-3.1 1-4.6 5-4.6h3.7v-15.7zm-55.6.3h-14.9v32.6c0 10.3 4.4 17.6 15.5 17.6 5.6 0 8.7-2.5 9.8-3.7v3.2h14.8v-49.6h-14.9v30.8c0 3.6-1.9 6-5.3 6-3.5 0-5-2.4-5-6v-30.9zm-27.1-7.9h-14.9v7.9h-4.4v12.5h4.4v24.2c0 8.5 4.5 13.5 14 13.5 5.2 0 7.5-.9 7.5-.9v-12.5h-2.5c-2.7 0-4.1-1.1-4.1-4.5v-19.8h6.6v-12.5h-6.6v-7.9zm-62 32.7c0-7 4.3-12.3 11.6-12.3 6.9 0 11.6 5.3 11.6 12.3 0 7.1-4.3 12.4-11.5 12.4s-11.7-5.4-11.7-12.4m23.9 24.8h13.7v-49.6h-14v3.2c-2.8-2.5-7.8-4-13-4-15.6 0-25.5 11-25.5 25.6 0 15.4 10.2 25.7 25.5 25.7 7.1 0 11.3-2.4 13.3-4.1v3.2zm-59.1 0h15.3V92h-14.9v38.8L157.6 92h-16v64.2h14.9v-37.9l24.8 37.9zM74.4 137V20.4C74.4 9.3 83.4.3 94.5.3c11.1 0 20.1 9 20.1 20.1L115 137H74.4zm-54.1 20C9.2 157 .2 148 .2 136.9V20.1h40.3v116.8c0 11.1-9.1 20.1-20.2 20.1"
     id="path4"
     style="fill:#d95043;fill-opacity:1" />
  <path
     class="st0"
     d="M105.8 153.9c-9.4 6-21.8 3.2-27.8-6.1L3.3 31C-2.7 21.6.1 9.2 9.4 3.2c9.4-6 21.8-3.2 27.8 6.1l74.6 116.8c6.1 9.4 3.4 21.8-6 27.8m9.5 40.4c0 11.1-9 20.1-20.1 20.1h-75C9 214.5 0 205.5 0 194.3c0-11.1 9-20.1 20.1-20.1h75c11.2 0 20.2 9 20.2 20.1m0 56.3c0 11.1-9 20.1-20.1 20.1h-75C9 270.7 0 261.7 0 250.6c0-11.1 9-20.1 20.1-20.1h75c11.2-.1 20.2 8.9 20.2 20.1"
     id="path6"
     style="fill:#d95043;fill-opacity:1" />
</svg>
