<?xml version="1.0" standalone="no"?>
<!DOCTYPE svg PUBLIC "-//W3C//DTD SVG 20010904//EN"
 "http://www.w3.org/TR/2001/REC-SVG-20010904/DTD/svg10.dtd">
<svg version="1.0" xmlns="http://www.w3.org/2000/svg"
 width="700.000000pt" height="700.000000pt" viewBox="0 0 700.000000 700.000000"
 preserveAspectRatio="xMidYMid meet">
<metadata>
Created by potrace 1.11, written by Peter Selinger 2001-2013
</metadata>
<g transform="translate(0.000000,700.000000) scale(0.100000,-0.100000)"
fill="#000000" stroke="none">
<path d="M2415 6914 c-11 -2 -45 -9 -75 -15 -248 -47 -411 -163 -501 -354 -46
-97 -61 -169 -66 -318 l-6 -139 -26 7 c-107 28 -233 31 -357 10 -432 -76 -802
-414 -911 -834 -33 -130 -41 -311 -19 -439 9 -50 16 -96 16 -101 0 -5 -34 -28
-76 -51 -80 -44 -207 -156 -255 -226 -52 -76 -99 -181 -120 -271 -18 -75 -20
-108 -16 -223 8 -205 58 -358 183 -567 l64 -106 -51 -66 c-59 -78 -141 -241
-164 -326 -38 -142 -30 -339 20 -485 114 -336 432 -627 781 -716 165 -41 302
-41 462 2 22 6 22 5 22 -94 0 -194 48 -460 111 -620 68 -171 136 -279 247
-394 197 -203 451 -300 751 -285 363 18 701 220 830 497 66 141 62 -54 56
2804 -4 1628 -10 2623 -16 2676 -12 100 -53 228 -100 307 -57 96 -171 202
-269 250 -126 63 -183 75 -350 79 -80 1 -154 1 -165 -2z m294 -259 c165 -39
275 -148 328 -326 15 -49 17 -275 23 -2339 3 -1257 5 -2286 4 -2288 -1 -2 -26
12 -56 32 -29 19 -82 45 -119 57 -65 22 -65 23 -104 3 -21 -10 -47 -31 -58
-46 -26 -35 -26 -101 0 -136 20 -28 31 -34 118 -74 98 -44 188 -164 214 -286
14 -68 14 -196 0 -264 -18 -84 -56 -147 -135 -225 -217 -215 -611 -276 -884
-138 -182 92 -321 273 -398 515 -49 155 -64 263 -69 502 l-5 217 60 80 c69 91
81 130 58 184 -21 51 -69 79 -126 74 -47 -5 -49 -7 -148 -125 -149 -179 -403
-208 -667 -77 -331 164 -531 499 -475 794 25 132 91 248 219 382 l93 99 -42
53 c-59 74 -157 222 -191 290 -59 116 -92 233 -97 347 -7 169 34 291 138 401
106 114 248 174 393 167 102 -4 170 -34 245 -106 29 -28 66 -53 82 -57 72 -16
150 44 150 116 0 54 -19 87 -86 148 -103 94 -247 151 -386 151 l-67 0 -13 43
c-20 68 -16 309 6 387 44 151 108 261 220 379 88 91 170 150 278 200 128 59
197 75 323 75 132 1 219 -23 310 -82 58 -38 185 -163 185 -183 0 -17 64 -49
100 -49 75 0 139 74 124 144 -10 45 -57 111 -140 193 -72 71 -72 72 -84 147
-16 94 -8 283 14 353 34 108 114 192 220 232 133 50 321 65 445 36z"/>
<path d="M3995 6902 c-294 -77 -466 -262 -532 -573 -16 -79 -17 -240 -18
-2739 l0 -2655 23 -65 c91 -255 328 -451 650 -537 85 -23 117 -26 262 -27 143
-1 176 2 250 22 282 77 495 251 633 519 108 209 177 518 177 792 0 61 1 63 23
57 12 -3 65 -14 117 -23 81 -14 109 -14 200 -4 360 42 701 284 866 616 74 150
96 239 97 390 1 187 -45 335 -151 493 -31 47 -63 95 -71 106 -12 19 -9 28 31
91 235 365 271 745 97 1037 -72 122 -199 240 -322 299 -32 16 -46 28 -43 39
34 119 40 355 13 476 -103 455 -471 810 -922 889 -123 21 -275 17 -366 -11
-14 -4 -17 13 -22 123 -11 229 -66 372 -192 499 -82 83 -169 130 -315 170
-130 35 -378 43 -485 16z m372 -248 c178 -36 260 -90 318 -206 49 -101 64
-215 47 -369 l-13 -112 -93 -98 c-51 -54 -101 -115 -111 -135 -37 -79 8 -170
92 -181 55 -7 92 15 148 88 193 249 525 298 844 123 221 -121 379 -322 442
-559 25 -97 30 -259 10 -357 l-13 -68 -72 0 c-145 0 -293 -60 -393 -160 -71
-70 -90 -113 -73 -164 20 -61 86 -103 143 -90 16 3 56 31 89 61 80 74 132 96
239 101 229 11 437 -137 515 -368 25 -74 25 -249 1 -340 -40 -146 -128 -312
-243 -459 -35 -44 -64 -84 -64 -88 0 -5 36 -45 79 -91 104 -108 167 -204 204
-311 67 -192 26 -409 -112 -594 -47 -63 -159 -172 -221 -214 -163 -111 -365
-167 -512 -144 -130 21 -225 80 -304 189 -26 35 -61 70 -77 79 -71 36 -163
-13 -174 -94 -7 -50 11 -88 77 -170 l50 -61 -4 -204 c-6 -311 -46 -501 -149
-703 -42 -83 -67 -116 -142 -191 -77 -78 -104 -98 -185 -137 -191 -93 -391
-102 -608 -28 -45 16 -108 44 -140 62 -83 49 -202 171 -238 244 -28 58 -29 64
-29 215 0 153 0 156 32 222 45 96 109 160 207 208 89 44 116 75 116 132 0 73
-75 137 -144 124 -35 -7 -134 -53 -185 -87 l-34 -23 6 2275 c6 2254 6 2275 26
2353 46 174 154 285 322 330 72 20 232 20 326 0z"/>
<path d="M4623 4500 c-41 -25 -113 -121 -152 -204 -48 -102 -65 -178 -65 -301
-1 -119 20 -208 71 -310 59 -116 182 -257 237 -271 79 -19 161 61 148 147 -2
14 -33 62 -70 105 -135 162 -171 314 -113 480 11 29 32 73 48 96 16 24 42 61
56 82 32 46 34 89 7 133 -37 61 -108 79 -167 43z"/>
<path d="M5865 1130 l-1130 -1130 1133 0 1132 0 0 1130 c0 622 -1 1130 -3
1130 -1 0 -511 -508 -1132 -1130z"/>
</g>
</svg>
