<?xml version="1.0" standalone="no"?>
<!DOCTYPE svg PUBLIC "-//W3C//DTD SVG 20010904//EN"
 "http://www.w3.org/TR/2001/REC-SVG-20010904/DTD/svg10.dtd">
<svg version="1.0" xmlns="http://www.w3.org/2000/svg"
 width="700.000000pt" height="700.000000pt" viewBox="0 0 700.000000 700.000000"
 preserveAspectRatio="xMidYMid meet">
<metadata>
Created by potrace 1.11, written by Peter Selinger 2001-2013
</metadata>
<g transform="translate(0.000000,700.000000) scale(0.100000,-0.100000)"
fill="#000000" stroke="none">
<path d="M3215 6989 c-744 -63 -1431 -350 -1990 -830 -109 -93 -322 -307 -403
-405 -455 -548 -726 -1183 -804 -1889 -17 -155 -17 -575 0 -730 75 -673 331
-1296 748 -1820 172 -216 467 -497 690 -657 429 -308 942 -521 1456 -607 68
-12 161 -26 208 -33 63 -8 586 -13 1983 -15 l1898 -4 -4 1898 c-3 1394 -7
1921 -15 1983 -24 170 -54 333 -82 449 -197 808 -688 1532 -1369 2020 -596
427 -1316 655 -2051 650 -91 -1 -210 -6 -265 -10z m675 -334 c728 -92 1398
-428 1901 -953 695 -725 1007 -1726 848 -2722 -136 -856 -640 -1638 -1369
-2125 -448 -299 -944 -474 -1490 -526 -226 -21 -598 -2 -856 45 -1055 191
-1955 921 -2365 1918 -261 636 -308 1345 -134 2013 112 432 314 833 597 1187
107 134 355 382 488 487 504 401 1088 633 1735 691 139 12 495 4 645 -15z"/>
<path d="M4583 4491 c-73 -34 -73 -33 -73 -438 0 -341 1 -360 20 -391 39 -63
125 -77 185 -30 53 41 55 59 55 425 0 302 -2 342 -18 372 -34 69 -101 93 -169
62z"/>
</g>
</svg>
