<svg version="1" xmlns="http://www.w3.org/2000/svg" width="938.667" height="938.667" viewBox="0 0 704.000000 704.000000"><path d="M232.5 7.5c-29.8 6-47.8 21-54.8 45.5-2.4 8.3-3.9 20.9-3.5 28.4.2 4.7 0 6.5-.9 6.2-3.9-1.5-18.9-2.8-26.7-2.3-25 1.7-49.2 12.7-68.5 31.2-17 16.3-26.5 32.3-32.2 54.2-3 11.5-3.3 36.7-.6 47.8 1 3.8 1.4 7.1.9 7.3-.4.1-3.6 1.9-7.1 4-16.8 9.9-29.4 26.9-34.2 46.2-2.1 8.1-1.8 31.6.4 40.9 2.8 11.7 7.2 23.5 13.6 36.1l5.9 11.8-5.5 7.2c-8.8 11.8-14.8 24.9-17.8 39.3-1.9 8.9-1.9 29.5 0 38.6 8.2 39 38 71.3 75 81.2 14.6 4 37.1 2.8 50.7-2.6 1.3-.5 1.8.1 2.3 3.2 10.1 63.3 35.4 107 73.6 126.8 4.7 2.4 12.5 5.6 17.5 7.1 8 2.4 10.5 2.7 24.4 2.8 13.3 0 16.6-.3 23.5-2.2 23.3-6.7 41.9-20.9 51.4-39.1 8.2-15.8 7.5 1.2 7.8-189.6.2-93.5-.1-215.5-.5-271-1-113.5-.5-105.8-8.8-123.3-8.5-17.7-24.2-30-44.8-35.2-9.2-2.3-30.9-2.6-41.1-.5zm36.6 25.3c16.8 4.7 27.7 16.8 31.4 34.9 1.1 5.6 1.5 47.3 2.1 241.8l.7 234.9-3.2-2.7c-6.2-5.2-13-4.8-18 .9-2.5 2.8-3.1 4.4-3.1 7.9 0 4.1.6 5.1 7.6 13.2 4.2 5 9.1 12 11.2 16.2 3.5 7.1 3.7 8 3.7 17.6 0 9.3-.2 10.5-3.2 16.5-6 12.3-17.5 21.5-33 26.6-7.5 2.5-10.4 2.9-19.8 2.9-12.1 0-20.7-2.1-31.6-7.5-30.3-15.3-52.9-57.7-60-112.6l-1.2-9.1 8.3-7.9c8.9-8.5 19.4-21.8 23.7-29.9 3.2-6.2 2.7-11-1.7-15.3-6-6-14.5-4.7-19.9 3-1.7 2.4-4.7 6.7-6.8 9.7-8.6 12.2-22.9 24.4-34.6 29.5-11.1 4.9-26.2 6.3-37.7 3.6-11.9-2.8-25.2-10.5-34.9-20.1C33.3 471 25 451.7 25 430.6c0-21.5 6.5-36.2 23.7-53.7l8.4-8.6-5.9-9.4c-19.2-30.5-26.5-56.3-21.7-76.8 5.4-22.7 25.2-37.8 51.1-38.9 12.2-.5 19.2.8 28.4 5.4 11.8 5.9 17.3 14.3 19.4 29.5 1.1 8.3 1.6 9.5 4.4 12 4.3 3.9 9.2 4.6 13.8 2.2 5.8-3 7.7-7.3 6.9-15.8-.9-9.9-2.2-14.9-6.3-23.5-4.1-8.8-15.3-20.7-24.2-25.7-12-6.9-31.3-11-45.1-9.7l-6.6.7-1.4-5.4c-2.2-8.9-1.8-28.9.9-38.3 4.3-14.9 11.4-26.9 22.6-38.2 16.9-16.9 37.1-25.7 58.6-25.8 19.9 0 34.9 7.6 46.7 23.6 5.8 8 12 9.8 18.4 5.5 9.9-6.7 7.4-16.5-8.3-31.8-5.9-5.8-6.9-7.3-7.7-11.5-3.7-20.2-1.2-38.1 7-49.3 7.1-9.9 23.3-15.8 43.9-16 7.4-.1 12.5.4 17.1 1.7zM403.2 8.1c-4 1-10.9 3.7-15.4 6.1-18.1 9.4-30 25.5-35.5 48.1-1.6 6.8-1.8 23.4-2 273.2-.4 297.6-.9 274.9 6.9 290.5 3.4 6.9 6 10.3 13.8 18 10.9 10.9 21.1 17 36.5 21.6 8 2.4 10.7 2.7 24 2.8 12.7 0 16.3-.3 23.5-2.3 31.2-8.4 56.1-31 73-66.4 9.3-19.5 16.5-43.3 19.5-64.8 1-7 1.3-7.2 7.6-5.1 20 6.9 42.8 4.8 64.4-5.8 26.6-13.1 47.6-39.1 55.7-69 1.9-7.3 2.2-10.8 2.2-25 0-15-.3-17.3-2.8-25.5-3.5-11.6-9.5-23.5-16.3-32.6l-5.5-7.3 4.5-8.5c10.4-19.7 16.4-39.6 17.4-57.1 1.5-30.1-13.1-56.7-39-70.9-4.1-2.2-4.7-2.9-4.3-5.1 1.8-8.1 3.6-22.3 3.6-27.5 0-8.9-2.6-24.1-5.5-33.1-14.1-42.1-54.9-74.2-98.1-77.1-7.9-.5-22.8.8-26.9 2.3-1 .4-1.4-2.6-1.8-13.3-.3-8.4-1.1-16.2-2.1-19.8-8.9-31.7-35.4-48.6-76.1-48.4-10.3.1-15.9.6-21.3 2zm42.1 25.3c13.6 3.5 19.2 6.7 24.8 14.5 6.8 9.4 9.7 28.6 6.9 45.8-1.2 7.7-1.3 7.9-7.1 13.2-3.3 2.9-8 8.1-10.4 11.6-3.8 5.2-4.5 7-4.5 10.8 0 11.4 13.4 16.8 20.9 8.4 11-12.2 14.3-15.5 19.5-18.9 10.8-7 24.9-9.8 38.9-7.9 34.1 4.8 64 31.3 72.8 64.7 2.5 9.5 2.9 25.6 1 35.8l-1.4 6.8-7.6-.6c-9.3-.8-24 1.3-33.4 4.7-24.2 8.8-39.9 29.4-41.4 54.2-.5 7.2-.3 8.3 1.9 11.5 3.3 4.9 9.1 6.9 14.4 4.9 5.5-2.1 8-6.3 8.7-14.8 1.5-17.7 12.8-29.9 31.8-34.1 7.4-1.7 24.7-.8 31.4 1.5 18.1 6.3 29.7 17.2 34.7 32.8 2.4 7.4 2.9 23.3.9 31.7-3.6 15.5-10.6 31.6-21.1 48.3l-6.2 9.8 7.9 8.2c12.9 13.4 19.9 25.6 22.9 40.2 1.9 9.4 1.5 23.7-1 33-7 25.8-28 48.4-52.3 56.2-10.7 3.4-24.8 3.6-34.7.4-18.4-5.9-31.2-16.4-45.9-37.6-5.4-7.8-6.8-9.2-10.5-10.4-3.7-1.1-4.9-1.1-8 .1-4.7 1.7-8.2 6.9-8.2 11.9 0 6.5 14 25.7 28 38.4 3 2.7 5.7 5 5.8 5.2.2.1-.4 5.2-1.3 11.5-6.4 44.5-21 78.2-42.7 98.4-19.2 17.9-43.5 24.3-67 17.5-25.3-7.3-41.8-28.9-37.8-49.3 1.7-8.8 5.9-17.1 12.7-25.1 8.7-10.3 10.3-12.7 10.3-15.9 0-8.7-10-15.5-17.3-11.7-1.2.6-3.2 2.1-4.4 3.2l-2.3 2V313.9c0-161.7.3-233.1 1.1-239.4 2.8-23.1 13.6-36.7 33.2-42 8.6-2.3 24.9-1.9 36 .9z"/><path d="M444.1 235.3c-4.9 1.6-13.3 9.7-16.8 16.4-4.8 8.8-6.5 17.1-6.5 30.3-.1 35.7 19.8 64.2 46.6 66.7 7.6.7 11.7-.6 14.6-4.7 2.4-3.4 2.6-9.9.5-13.9-1.6-3.2-6.9-6.1-11.2-6.1-7.1-.1-14.9-6.3-19.7-15.9-4.3-8.4-5.8-16.5-5.4-28.1.5-12.7 2.6-18.5 8.2-21.9 9.1-5.7 8.8-17.9-.7-22.2-4.7-2.1-4.9-2.1-9.6-.6zM583.8 586.8L464.2 698.5l119.6.3c65.7.1 119.7.1 119.9-.1.2-.2.2-50.6.1-112l-.3-111.6-119.7 111.7z"/></svg>